<svg width="580" height="400" xmlns="http://www.w3.org/2000/svg">
 <!-- Created with Method Draw - http://github.com/duopixel/Method-Draw/ -->

 <g>
  <title>background</title>
  <rect fill="#fff" id="canvas_background" height="402" width="582" y="-1" x="-1"/>
  <g display="none" overflow="visible" y="0" x="0" height="100%" width="100%" id="canvasGrid">
   <rect fill="url(#gridpattern)" stroke-width="0" y="0" x="0" height="100%" width="100%"/>
  </g>
 </g>
 <g>
  <title>Layer 1</title>
  <g stroke="null" id="svg_43">
   <g stroke="null" transform="matrix(0.07606336441253203,0,0,0.06781683510376357,-29.802144232353385,0) " id="svg_5">
    <g stroke="null" id="svg_6">
     <g stroke="null" id="svg_7">
      <path stroke-width="0" stroke-dasharray="2,2" stroke="null" id="svg_8" d="m3974.991475,2772.036804l-17.067,0c-4.71,0 -8.533,3.823 -8.533,8.533s3.823,8.533 8.533,8.533l17.067,0c4.71,0 8.533,-3.823 8.533,-8.533s-3.822,-8.533 -8.533,-8.533z"/>
      <path stroke-width="0" stroke-dasharray="2,2" stroke="null" id="svg_9" d="m3974.991475,2806.169804l-17.067,0c-4.71,0 -8.533,3.823 -8.533,8.533c0,4.71 3.823,8.533 8.533,8.533l17.067,0c4.71,0 8.533,-3.823 8.533,-8.533c0.001,-4.71 -3.822,-8.533 -8.533,-8.533z"/>
      <path stroke-width="0" stroke-dasharray="2,2" stroke="null" id="svg_10" d="m3974.991475,2737.902804l-17.067,0c-4.71,0 -8.533,3.823 -8.533,8.533c0,4.71 3.823,8.533 8.533,8.533l17.067,0c4.71,0 8.533,-3.823 8.533,-8.533c0.001,-4.71 -3.822,-8.533 -8.533,-8.533z"/>
      <path stroke-width="0" stroke-dasharray="2,2" stroke="null" id="svg_11" d="m3974.991475,3010.969804l-17.067,0c-4.71,0 -8.533,3.823 -8.533,8.533s3.823,8.533 8.533,8.533l17.067,0c4.71,0 8.533,-3.823 8.533,-8.533s-3.822,-8.533 -8.533,-8.533z"/>
      <path stroke-width="0" stroke-dasharray="2,2" stroke="null" id="svg_12" d="m3787.258475,2737.902804l-51.2,0c-4.71,0 -8.533,3.823 -8.533,8.533l0,119.467c0,4.71 3.823,8.533 8.533,8.533l51.2,0c4.71,0 8.533,-3.823 8.533,-8.533l0,-119.466c0,-4.711 -3.823,-8.534 -8.533,-8.534zm-8.533,119.467l-34.133,0l0,-102.4l34.133,0l0,102.4z"/>
      <path stroke-width="0" stroke-dasharray="2,2" stroke="null" id="svg_13" d="m3787.258475,3010.969804l-51.2,0c-4.71,0 -8.533,3.823 -8.533,8.533s3.823,8.533 8.533,8.533l51.2,0c4.71,0 8.533,-3.823 8.533,-8.533s-3.823,-8.533 -8.533,-8.533z"/>
      <path stroke-width="0" stroke-dasharray="2,2" stroke="null" id="svg_14" d="m3787.258475,3045.102804l-51.2,0c-4.71,0 -8.533,3.823 -8.533,8.533c0,4.71 3.823,8.533 8.533,8.533l51.2,0c4.71,0 8.533,-3.823 8.533,-8.533c0,-4.71 -3.823,-8.533 -8.533,-8.533z"/>
      <path stroke-width="0" stroke-dasharray="2,2" stroke="null" id="svg_15" d="m3974.991475,3045.102804l-17.067,0c-4.71,0 -8.533,3.823 -8.533,8.533c0,4.71 3.823,8.533 8.533,8.533l17.067,0c4.71,0 8.533,-3.823 8.533,-8.533c0.001,-4.71 -3.822,-8.533 -8.533,-8.533z"/>
      <path stroke-width="0" stroke-dasharray="2,2" stroke="null" id="svg_16" d="m4077.391475,3045.102804l-34.133,0c-4.71,0 -8.533,3.823 -8.533,8.533c0,4.71 3.823,8.533 8.533,8.533l34.133,0c4.71,0 8.533,-3.823 8.533,-8.533c0.001,-4.71 -3.822,-8.533 -8.533,-8.533z"/>
      <path stroke-width="0" stroke-dasharray="2,2" stroke="null" id="svg_17" d="m3898.191475,2746.436804c0,-4.71 -3.823,-8.533 -8.533,-8.533l-34.133,0c-4.71,0 -8.533,3.823 -8.533,8.533l0,119.467c0,4.71 3.823,8.533 8.533,8.533l34.133,0c4.71,0 8.533,-3.823 8.533,-8.533l0,-119.467zm-17.066,110.933l-17.067,0l0,-102.4l17.067,0l0,102.4z"/>
      <path stroke-width="0" stroke-dasharray="2,2" stroke="null" id="svg_18" d="m4077.391475,3010.969804l-34.133,0c-4.71,0 -8.533,3.823 -8.533,8.533s3.823,8.533 8.533,8.533l34.133,0c4.71,0 8.533,-3.823 8.533,-8.533s-3.822,-8.533 -8.533,-8.533z"/>
      <path stroke-width="0" stroke-dasharray="2,2" stroke="null" id="svg_19" d="m3889.658475,3045.102804l-34.133,0c-4.71,0 -8.533,3.823 -8.533,8.533c0,4.71 3.823,8.533 8.533,8.533l34.133,0c4.71,0 8.533,-3.823 8.533,-8.533c0,-4.71 -3.823,-8.533 -8.533,-8.533z"/>
      <path stroke-width="0" stroke-dasharray="2,2" stroke="null" id="svg_20" d="m4043.258475,2908.569804c4.71,0 8.533,-3.823 8.533,-8.533l0,-85.333c0,-4.71 -3.823,-8.533 -8.533,-8.533s-8.533,3.823 -8.533,8.533l0,85.333c0,4.71 3.823,8.533 8.533,8.533z"/>
      <path stroke-width="0" stroke-dasharray="2,2" stroke="null" id="svg_21" d="m4085.925475,2814.702804c0,-4.71 -3.823,-8.533 -8.533,-8.533s-8.533,3.823 -8.533,8.533l0,85.333c0,4.71 3.823,8.533 8.533,8.533s8.533,-3.823 8.533,-8.533l0,-85.333z"/>
      <path stroke-width="0" stroke-dasharray="2,2" stroke="null" id="svg_22" d="m4094.458475,2669.636804l-51.2,0c-4.71,0 -8.533,3.823 -8.533,8.533s3.823,8.533 8.533,8.533l51.2,0c4.702,0 8.533,3.831 8.533,8.533l0,392.534c0,4.702 -3.831,8.533 -8.533,8.533l-76.8,0l0,-358.4l51.2,0c4.71,0 8.533,-3.823 8.533,-8.533s-3.823,-8.533 -8.533,-8.533l-51.2,0l0,-76.8c0,-14.353 -11.247,-25.6 -25.6,-25.6l-51.2,0c-14.114,0 -25.6,11.486 -25.6,25.6l0,452.267l-85.333,0l0,-443.734l59.733,0c4.71,0 8.533,-3.823 8.533,-8.533c0,-4.71 -3.823,-8.533 -8.533,-8.533l-59.733,0l0,-8.534c0,-14.353 -11.247,-25.6 -25.6,-25.6l-85.333,0c-14.114,0 -25.6,11.486 -25.6,25.6l0,76.8l-42.667,0c-4.71,0 -8.533,3.823 -8.533,8.533s3.823,8.533 8.533,8.533l42.667,0l0,375.467l-59.734,0c-4.702,0 -8.533,-3.831 -8.533,-8.533l0,-409.6c0,-4.702 3.831,-8.533 8.533,-8.533l34.133,0c4.71,0 8.533,-3.823 8.533,-8.533s-3.822,-8.534 -8.533,-8.534l-34.133,0c-14.114,0 -25.6,11.486 -25.6,25.6l0,409.6c0,14.114 11.486,25.6 25.6,25.6l460.8,0c14.114,0 25.6,-11.486 25.6,-25.6l0,-392.533c0,-14.114 -11.486,-25.6 -25.6,-25.6zm-281.6,426.666l-102.4,0l0,-426.666l76.8,0c4.71,0 8.533,-3.823 8.533,-8.533s-3.823,-8.534 -8.533,-8.534l-76.8,0l0,-25.6c0,-4.787 3.746,-8.533 8.533,-8.533l85.333,0c4.864,0 8.533,3.669 8.533,8.533l0,469.333l0.001,0zm187.733,0l-68.267,0l0,-409.6l42.667,0c4.71,0 8.533,-3.823 8.533,-8.533s-3.823,-8.533 -8.533,-8.533l-42.667,0l0,-25.6c0,-4.787 3.746,-8.533 8.533,-8.533l51.201,0c4.864,0 8.533,3.669 8.533,8.533l0,452.266z"/>
      <path stroke-width="0" stroke-dasharray="2,2" stroke="null" id="svg_23" d="m3667.791475,3010.969804l-17.066,0c-4.71,0 -8.533,3.823 -8.533,8.533s3.823,8.533 8.533,8.533l17.067,0c4.71,0 8.533,-3.823 8.533,-8.533s-3.823,-8.533 -8.534,-8.533z"/>
      <path stroke-width="0" stroke-dasharray="2,2" stroke="null" id="svg_24" d="m3667.791475,3045.102804l-17.066,0c-4.71,0 -8.533,3.823 -8.533,8.533c0,4.71 3.823,8.533 8.533,8.533l17.067,0c4.71,0 8.533,-3.823 8.533,-8.533c0,-4.71 -3.823,-8.533 -8.534,-8.533z"/>
      <path stroke-width="0" stroke-dasharray="2,2" stroke="null" id="svg_25" d="m3889.658475,3010.969804l-34.133,0c-4.71,0 -8.533,3.823 -8.533,8.533s3.823,8.533 8.533,8.533l34.133,0c4.71,0 8.533,-3.823 8.533,-8.533s-3.823,-8.533 -8.533,-8.533z"/>
      <path stroke-width="0" stroke-dasharray="2,2" stroke="null" id="svg_26" d="m3667.791475,2806.169804l-17.066,0c-4.71,0 -8.533,3.823 -8.533,8.533c0,4.71 3.823,8.533 8.533,8.533l17.067,0c4.71,0 8.533,-3.823 8.533,-8.533c0,-4.71 -3.823,-8.533 -8.534,-8.533z"/>
      <path stroke-width="0" stroke-dasharray="2,2" stroke="null" id="svg_27" d="m3667.791475,2840.302804l-17.066,0c-4.71,0 -8.533,3.823 -8.533,8.533s3.822,8.534 8.533,8.534l17.067,0c4.71,0 8.533,-3.823 8.533,-8.533s-3.823,-8.534 -8.534,-8.534z"/>
     </g>
    </g>
   </g>
   <g stroke="null" transform="matrix(0.07606336441253203,0,0,0.06781683510376357,-29.802144232353385,0) " id="svg_28"/>
   <g stroke="null" transform="matrix(0.07606336441253203,0,0,0.06781683510376357,-29.802144232353385,0) " id="svg_29"/>
   <g stroke="null" transform="matrix(0.07606336441253203,0,0,0.06781683510376357,-29.802144232353385,0) " id="svg_30"/>
   <g stroke="null" transform="matrix(0.07606336441253203,0,0,0.06781683510376357,-29.802144232353385,0) " id="svg_31"/>
   <g stroke="null" transform="matrix(0.07606336441253203,0,0,0.06781683510376357,-29.802144232353385,0) " id="svg_32"/>
   <g stroke="null" transform="matrix(0.07606336441253203,0,0,0.06781683510376357,-29.802144232353385,0) " id="svg_33"/>
   <g stroke="null" transform="matrix(0.07606336441253203,0,0,0.06781683510376357,-29.802144232353385,0) " id="svg_34"/>
   <g stroke="null" transform="matrix(0.07606336441253203,0,0,0.06781683510376357,-29.802144232353385,0) " id="svg_35"/>
   <g stroke="null" transform="matrix(0.07606336441253203,0,0,0.06781683510376357,-29.802144232353385,0) " id="svg_36"/>
   <g stroke="null" transform="matrix(0.07606336441253203,0,0,0.06781683510376357,-29.802144232353385,0) " id="svg_37"/>
   <g stroke="null" transform="matrix(0.07606336441253203,0,0,0.06781683510376357,-29.802144232353385,0) " id="svg_38"/>
   <g stroke="null" transform="matrix(0.07606336441253203,0,0,0.06781683510376357,-29.802144232353385,0) " id="svg_39"/>
   <g stroke="null" transform="matrix(0.07606336441253203,0,0,0.06781683510376357,-29.802144232353385,0) " id="svg_40"/>
   <g stroke="null" transform="matrix(0.07606336441253203,0,0,0.06781683510376357,-29.802144232353385,0) " id="svg_41"/>
   <g stroke="null" transform="matrix(0.07606336441253203,0,0,0.06781683510376357,-29.802144232353385,0) " id="svg_42"/>
  </g>
  <path id="svg_44" d="m248.444189,179.110916" opacity="0.5" stroke-width="1.5" stroke="#000" fill="#fff"/>
  <text stroke="#000" transform="matrix(1,0,0,0.3219645321369171,0,138.2980468356982) " xml:space="preserve" text-anchor="start" font-family="Helvetica, Arial, sans-serif" font-size="24" id="svg_45" y="198.888673" x="255.110849" stroke-width="0" fill="#000000"/>
  <text stroke="#000" transform="rotate(-0.16083092987537384 256.43743896484625,200.1199645996055) matrix(0.5556126832962036,0,0,0.38795025329138266,112.37676174928856,126.04874622711242) " xml:space="preserve" text-anchor="start" font-family="Helvetica, Arial, sans-serif" font-size="24" id="svg_46" y="199.278584" x="255.950414" fill-opacity="null" stroke-opacity="null" stroke-width="0" fill="#000000">I</text>
  <text stroke="#000" transform="matrix(0.3633354293529578,0,0,0.388824999332428,168.31252123120112,125.50096654333174) " xml:space="preserve" text-anchor="start" font-family="Helvetica, Arial, sans-serif" font-size="24" id="svg_47" y="200.793527" x="255.853701" fill-opacity="null" stroke-opacity="null" stroke-width="0" fill="#000000">O</text>
 </g>
</svg>